<svg width="95" height="95" viewBox="0 0 95 95" fill="none" xmlns="http://www.w3.org/2000/svg">
<path d="M81.1457 45.4363C83.6614 43.1549 85.104 41.5624 85.104 41.5624C85.104 41.5624 67.175 21.7708 47.4999 21.7708C27.8248 21.7708 9.89575 41.5624 9.89575 41.5624C9.89575 41.5624 22.1978 55.1425 37.6041 59.8048" stroke="#1E3050" stroke-width="4" stroke-linecap="square"/>
<path d="M54.3576 37.6042C52.9886 35.2379 50.4301 33.6459 47.4999 33.6459C43.1277 33.6459 39.5833 37.1904 39.5833 41.5625C39.5833 43.9271 40.6199 46.0493 42.2634 47.5" stroke="#1E3050" stroke-width="4" stroke-linecap="square"/>
<path d="M49.48 55.4165L73.2292 55.4167V73.1952C73.2292 73.1952 67.6876 75.2084 60.9584 75.2084C54.2292 75.2084 49.4792 73.1952 49.4792 73.1952L49.48 55.4165Z" fill="#FF6161" stroke="#1E3050" stroke-width="4"/>
<path d="M63.3333 65.3125C63.3333 66.4056 62.4473 67.2916 61.3542 67.2916C60.2611 67.2916 59.375 66.4056 59.375 65.3125C59.375 64.2194 60.2611 63.3333 61.3542 63.3333C62.4473 63.3333 63.3333 64.2194 63.3333 65.3125Z" fill="#C8FF61" stroke="#1E3050" stroke-width="4"/>
<path d="M69.2709 55.4162V45.5208L53.436 45.5206L53.4376 55.4162" stroke="#1E3050" stroke-width="4" stroke-linecap="square"/>
</svg>
