<svg width="833" height="953" viewBox="0 0 833 953" fill="none" xmlns="http://www.w3.org/2000/svg">
<path d="M416.376 476.496C547.76 476.496 654.243 370.013 654.243 238.629C654.243 107.244 547.76 0.76178 416.376 0.76178C284.992 0.76178 178.509 107.244 178.509 238.629C178.509 370.013 284.992 476.496 416.376 476.496ZM582.883 535.962H551.849C510.594 554.917 464.693 565.696 416.376 565.696C368.059 565.696 322.344 554.917 280.903 535.962H249.869C111.981 535.962 0.108765 647.834 0.108765 785.723V863.029C0.108765 912.275 40.063 952.229 89.3089 952.229H743.443C792.689 952.229 832.643 912.275 832.643 863.029V785.723C832.643 647.834 720.771 535.962 582.883 535.962Z" fill="black"/>
</svg>
