<?xml version="1.0" encoding="UTF-8"?><svg id="Capa_2" xmlns="http://www.w3.org/2000/svg" viewBox="0 0 311.4 294.44"><defs><style>.cls-1{stroke-width:0px;}</style></defs><g id="Capa_1-2"><path class="cls-1" d="m116.5,89.31c-5.13-.37-11.15.81-11.53-6.55-.2-3.8,2.84-5.59,9.41-6.03v-31.13c-1.17-.06-2.37-.22-3.57-.16-3.09.16-5.54-.98-6.54-3.91-1.09-3.2.17-5.72,2.97-7.7,7.02-4.97,13.92-10.1,20.87-15.16,7.56-5.5,15.11-11.01,22.67-16.5,3.95-2.87,5.82-2.91,9.75-.05,14.12,10.25,28.18,20.58,42.33,30.77,3.05,2.2,5.6,4.53,4.24,8.59-1.26,3.75-4.55,4.18-8,3.96-.61-.04-1.22.06-2.12.11v30.29c2.86,1.23,5.61,2.12,8.01,3.58.9.55,1.51,2.46,1.39,3.66-.72,7.06-6.52,5.79-11.52,6.3,2.48,18.72,4.92,37.18,7.41,55.95h-93.19c2.45-18.61,4.9-37.14,7.39-56.02Zm10.81-43.74v31.11h22.17v-31.11h-22.17Zm34.61.01v31.1h22.17v-31.1h-22.17Z"/><path class="cls-1" d="m98.3,225.93h114.73c1.33,9.68,2.68,19.26,3.96,28.84,1.09,8.14,2.13,16.29,3.1,24.45.26,2.15,1.13,2.92,3.36,2.89,8.86-.12,17.71-.06,26.57-.03,1.36,0,2.75.09,4.06.41,2.93.73,4.39,2.83,4.39,5.75,0,2.91-1.45,5.04-4.4,5.72-1.56.36-3.2.44-4.81.44-62.38.02-124.75.02-187.13.02-6.3,0-9.23-1.98-9.22-6.2.01-4.21,2.93-6.16,9.25-6.16,8.36,0,16.72-.12,25.07.07,2.87.06,3.82-.86,4.18-3.69,2.18-17.41,4.55-34.79,6.9-52.52Zm70.06,55.93c0-9.34.4-18.54-.14-27.68-.36-6-6.58-10.52-12.68-10.45-6.11.08-12.14,4.81-12.43,10.76-.43,9.03-.11,18.11-.11,27.37h25.37Z"/><path class="cls-1" d="m0,60.95c0-11.97-.01-23.95,0-35.92.01-6.18,3.23-8.54,9.25-6.67,28.24,8.75,56.47,17.53,84.7,26.33,4.82,1.5,6.06,3.16,6.1,8.07.05,5.61-.03,11.23.03,16.84.04,4.02-1.73,6.55-5.62,7.75-28.6,8.84-57.19,17.75-85.79,26.59C3.42,105.55.04,103.06.02,97.62c-.04-12.22-.01-24.45-.01-36.67Z"/><path class="cls-1" d="m311.39,61.48c0,11.85.01,23.69,0,35.54-.01,6.21-3.22,8.62-9.17,6.77-28.37-8.79-56.73-17.61-85.08-26.44-4.45-1.39-5.75-3.19-5.8-7.93-.05-5.61-.06-11.22,0-16.83.05-4.72,1.4-6.46,5.89-7.86,27.99-8.73,55.99-17.46,83.98-26.17,7.18-2.24,10.18-.05,10.18,7.38,0,11.85,0,23.69,0,35.54Z"/><path class="cls-1" d="m100.04,213.65c.95-7.48,1.84-14.73,2.8-21.97,1.38-10.36,2.92-20.69,4.14-31.07.3-2.57,1.12-3.35,3.64-3.35,30.05.07,60.09.06,90.14.02,2.16,0,3.3.37,3.63,2.95,2.05,16.29,4.33,32.55,6.5,48.83.19,1.45.2,2.92.3,4.6h-111.16Z"/></g></svg>